<svg xmlns="http://www.w3.org/2000/svg" width="144.53" height="37.931" viewBox="0 0 144.53 37.931">
  <g id="Logo1Mesa_de_trabajo_108" data-name="Logo1Mesa de trabajo 108" transform="translate(-28.676 -373.71)">
    <path id="Trazado_2" data-name="Trazado 2" d="M116.52,373.71h8.063v17.041a8.891,8.891,0,0,1,3.345-2.7,10.488,10.488,0,0,1,3.963-.687q4.324,0,6.529,2.381a9.02,9.02,0,0,1,2.191,6.417v14.529h-8.053V399.169a11.857,11.857,0,0,0-.268-2.809,3.253,3.253,0,0,0-.891-1.651,3.783,3.783,0,0,0-2.581-.935A3.993,3.993,0,0,0,125.673,395a5.124,5.124,0,0,0-1.091,3.5v12.211H116.52Z" transform="translate(-45.074)" fill="#8b2d85"/>
    <path id="Trazado_3" data-name="Trazado 3" d="M193.98,401.967h8.107v22.859H193.98v-2.542a8.472,8.472,0,0,1-7,3.252,11.33,11.33,0,0,1-4.586-.915,10.994,10.994,0,0,1-3.657-2.561,11.836,11.836,0,0,1-2.434-3.9,13.234,13.234,0,0,1-.867-4.869,12.883,12.883,0,0,1,.847-4.66,11.929,11.929,0,0,1,2.361-3.851,10.979,10.979,0,0,1,8.262-3.53,9.314,9.314,0,0,1,7.084,2.985Zm-10.161,11.364a5.356,5.356,0,0,0,1.495,3.739,4.869,4.869,0,0,0,1.646,1.1,5.322,5.322,0,0,0,2.074.4,5.185,5.185,0,0,0,2.025-.4,4.917,4.917,0,0,0,1.651-1.115,5.774,5.774,0,0,0,1.115-1.646,4.816,4.816,0,0,0,.424-2.006,4.952,4.952,0,0,0-.424-2.025,5.7,5.7,0,0,0-1.115-1.67,4.918,4.918,0,0,0-1.651-1.115,5.186,5.186,0,0,0-2.025-.4,5.322,5.322,0,0,0-2.074.4,4.869,4.869,0,0,0-1.646,1.115,5.424,5.424,0,0,0-1.091,1.626,4.869,4.869,0,0,0-.4,2Z" transform="translate(-75.306 -14.133)" fill="#8b2d85"/>
    <path id="Trazado_4" data-name="Trazado 4" d="M248.6,402.219V418.35h-8.063V402.219H237.86V395.49h2.673v-6.86H248.6v6.86h4.591v6.729Z" transform="translate(-107.335 -7.656)" fill="#8b2d85"/>
    <path id="Trazado_5" data-name="Trazado 5" d="M283.623,402.72V415.6q0,4.236,4.1,4.231t4.1-4.231V402.72h8.063v14.436q0,4.64-3.053,6.953t-9.11,2.313q-6.062,0-9.115-2.313t-3.048-6.953V402.72Z" transform="translate(-126.679 -14.885)" fill="#8b2d85"/>
    <path id="Trazado_6" data-name="Trazado 6" d="M66.592,392.365a18.94,18.94,0,1,1-5.858-13.391A18.959,18.959,0,0,1,66.592,392.365Zm-7.878,4.815c.122-.316.239-.6.346-.891a9.631,9.631,0,0,0,.487-2.249,11.914,11.914,0,0,0-.161-3.739,11.265,11.265,0,0,0-.906-2.8,10.539,10.539,0,0,0-1-1.67,14.119,14.119,0,0,0-1.2-1.461,9.3,9.3,0,0,0-1.986-1.66,13.774,13.774,0,0,0-1.2-.721c-.711-.321-1.461-.6-2.176-.857a8.511,8.511,0,0,0-1.519-.36,11.276,11.276,0,0,0-4.178.151c-.487.122-.974.224-1.461.351-.248.063-.487.161-.735.248a1.2,1.2,0,0,0-.185.068l-1.461.8a9.94,9.94,0,0,0-1.889,1.378,11.418,11.418,0,0,0-2.542,3.262,13.509,13.509,0,0,0-.745,1.7,11.9,11.9,0,0,0-.628,3.218,11.564,11.564,0,0,0,.321,3.725,13.674,13.674,0,0,0,.915,2.405,9.657,9.657,0,0,0,.618,1.091,10.182,10.182,0,0,0,.823,1.159,11.545,11.545,0,0,0,1.222,1.266,19.861,19.861,0,0,0,1.7,1.3,6.269,6.269,0,0,0,1.066.579,15.634,15.634,0,0,0,1.806.74,9.548,9.548,0,0,0,2.507.487c.8,0,1.607.029,2.405,0a10.533,10.533,0,0,0,2.512-.643,5.776,5.776,0,0,0,.623-.273.409.409,0,0,0-.058-.088L44.9,396.557c-.131-.127-.258-.253-.385-.39-.209-.224-.214-.239,0-.458l2.332-2.327,3.832-3.832c.18-.18.239-.175.419,0l.083.083,7.3,7.3Z" transform="translate(0 -0.012)" fill="#8b2d85"/>
  </g>
</svg>
